<svg version="1.2" xmlns="http://www.w3.org/2000/svg" viewBox="0 0 500 500" width="500" height="500">
	<style>
		.s0 { fill: #f0f0f0;stroke: #231f20;stroke-miterlimit:10 } 
	</style>
	<g>
		<g id="Layer_1">
			<g>
				<path class="s0" d="m340.92 77.91c-14.29 24.64-59.42 102.42-87.25 150.39-2 3.45-6.99 3.44-8.98-0.02-9.56-16.62-18.92-32.87-28.24-49.14-15.9-27.74-46.15-81.88-57.34-101.95-1.93-3.46 0.59-7.71 4.55-7.7l172.79 0.64c3.99 0.01 6.47 4.33 4.47 7.78z"/>
				<path class="s0" d="m254.73 272.49c27.28 47.02 72.19 125.42 86.37 150.18 1.98 3.45-0.52 7.75-4.5 7.75l-172.23 0.08c-3.98 0-6.48-4.29-4.51-7.74 15.88-27.8 69.9-122.39 85.9-150.25 1.99-3.46 6.97-3.47 8.97-0.02z"/>
				<path class="s0" d="m271.61 256.29h174.04c3.92 0 6.43 4.19 4.56 7.64-15 27.72-70.83 122.53-87.13 150.16-2.01 3.41-6.94 3.4-8.93-0.03-16.05-27.63-70.96-122.16-87.03-150-1.99-3.46 0.5-7.77 4.49-7.77z"/>
				<path class="s0" d="m266.38 230.49l87.54-149.35c2.01-3.42 6.95-3.41 8.95 0.01l86.38 148.4c2 3.44-0.47 7.77-4.45 7.79l-173.92 0.95c-4.02 0.02-6.53-4.34-4.5-7.8z"/>
				<path class="s0" d="m228.12 256.01c3.99 0 6.48 4.34 4.49 7.8-20.21 35.05-39.98 69.32-59.75 103.6-6.83 11.84-20.71 34.61-27.88 46.32-2.04 3.33-6.89 3.3-8.88-0.07-15.94-27.05-70.22-121.52-86.14-149.24-1.98-3.44 0.49-7.73 4.46-7.76 28.49-0.17 118.95-0.68 173.7-0.65z"/>
				<path class="s0" d="m232.43 234.01c2.01 3.45-0.47 7.79-4.47 7.79-21.94 0-78.61 0-109.97 0-16.75 0-48.38-0.55-63.75-0.84-3.96-0.07-6.37-4.38-4.37-7.8l86.56-148.15c2-3.42 6.92-3.43 8.93-0.03 12.89 21.86 70.4 120.44 87.07 149.02z"/>
			</g>
		</g>
	</g>
</svg>